<?xml version="1.0" encoding="UTF-8"?>
<svg width="300" height="200" viewBox="0 0 300 200" fill="none" xmlns="http://www.w3.org/2000/svg">
  <!-- Background -->
  <rect width="300" height="200" rx="10" fill="#F9FAFB"/>
  
  <!-- Media Upload Area -->
  <rect x="40" y="30" width="220" height="140" rx="8" fill="white" stroke="#E5E7EB" stroke-width="2" stroke-dasharray="6 6"/>
  
  <!-- Upload Icon -->
  <circle cx="150" cy="85" r="30" fill="#EEF2FF"/>
  <path d="M150 65V95M150 65L135 80M150 65L165 80" stroke="#6366F1" stroke-width="3" stroke-linecap="round" stroke-linejoin="round"/>
  
  <!-- Text -->
  <text x="150" y="125" font-family="Arial" font-size="14" text-anchor="middle" fill="#4B5563">Зураг чирч оруулах</text>
  <text x="150" y="145" font-family="Arial" font-size="12" text-anchor="middle" fill="#6B7280">Эсвэл энд дарж файл сонгоно уу</text>
  
  <!-- Decorative Elements -->
  <circle cx="70" cy="50" r="8" fill="#EEF2FF"/>
  <circle cx="230" cy="50" r="8" fill="#EEF2FF"/>
  <circle cx="70" cy="150" r="8" fill="#EEF2FF"/>
  <circle cx="230" cy="150" r="8" fill="#EEF2FF"/>
  
  <!-- File Types -->
  <rect x="90" y="162" width="120" height="20" rx="10" fill="#EEF2FF"/>
  <text x="150" y="176" font-family="Arial" font-size="10" text-anchor="middle" fill="#6366F1">JPG, PNG, GIF, SVG</text>
  
  <!-- Stylized Cloud -->
  <path d="M130 60C130 57.2386 132.239 55 135 55C137.761 55 140 57.2386 140 60C140 60 145 58 145 55C145 52 142 50 140 50C138 50 135 52 135 52C135 52 133 50 130 50C127 50 125 53 125 55C125 58 130 60 130 60Z" fill="#C7D2FE"/>
  
  <!-- Spotlight effect -->
  <circle cx="150" cy="85" r="70" fill="url(#paint0_radial)" fill-opacity="0.2"/>
  
  <defs>
    <radialGradient id="paint0_radial" cx="0" cy="0" r="1" gradientUnits="userSpaceOnUse" gradientTransform="translate(150 85) rotate(90) scale(70)">
      <stop stop-color="#6366F1"/>
      <stop offset="1" stop-color="#6366F1" stop-opacity="0"/>
    </radialGradient>
  </defs>
</svg>