<?xml version="1.0" encoding="UTF-8"?>
<svg width="300" height="200" viewBox="0 0 300 200" fill="none" xmlns="http://www.w3.org/2000/svg">
  <!-- Background -->
  <rect width="300" height="200" rx="10" fill="#F9FAFB"/>
  
  <!-- Navigation Menu Container -->
  <rect x="30" y="30" width="240" height="140" rx="8" fill="white" stroke="#E5E7EB" stroke-width="2"/>
  
  <!-- Header -->
  <rect x="30" y="30" width="240" height="40" rx="8 8 0 0" fill="#F3F4F6"/>
  <text x="50" y="55" font-family="Arial" font-size="14" font-weight="bold" fill="#4B5563">Цэс удирдлага</text>
  
  <!-- Menu Item 1 (Home) -->
  <rect x="40" y="80" width="220" height="24" rx="4" fill="#EEF2FF"/>
  <circle cx="50" cy="92" r="4" fill="#6366F1"/>
  <text x="60" y="96" font-family="Arial" font-size="12" fill="#4B5563">Нүүр хуудас</text>
  <line x1="170" y1="92" x2="180" y2="92" stroke="#6B7280" stroke-width="1.5"/>
  <line x1="175" y1="87" x2="175" y2="97" stroke="#6B7280" stroke-width="1.5"/>
  <rect x="190" y="84" width="16" height="16" rx="2" fill="#F3F4F6"/>
  <path d="M193 92H203M198 87V97" stroke="#6B7280" stroke-width="1.5" stroke-linecap="round"/>
  <rect x="210" y="84" width="16" height="16" rx="2" fill="#F3F4F6"/>
  <path d="M214 92H222" stroke="#6B7280" stroke-width="1.5" stroke-linecap="round"/>
  
  <!-- Menu Item 2 (Products) -->
  <rect x="50" y="114" width="210" height="24" rx="4" fill="#FAFBFC"/>
  <circle cx="60" cy="126" r="4" fill="#D1D5DB"/>
  <text x="70" y="130" font-family="Arial" font-size="12" fill="#4B5563">Бүтээгдэхүүн</text>
  <line x1="170" y1="126" x2="180" y2="126" stroke="#6B7280" stroke-width="1.5"/>
  <line x1="175" y1="121" x2="175" y2="131" stroke="#6B7280" stroke-width="1.5"/>
  <rect x="190" y="118" width="16" height="16" rx="2" fill="#F3F4F6"/>
  <path d="M193 126H203M198 121V131" stroke="#6B7280" stroke-width="1.5" stroke-linecap="round"/>
  <rect x="210" y="118" width="16" height="16" rx="2" fill="#F3F4F6"/>
  <path d="M214 126H222" stroke="#6B7280" stroke-width="1.5" stroke-linecap="round"/>
  
  <!-- Menu Item 3 (About) -->
  <rect x="50" y="148" width="210" height="24" rx="4" fill="#FAFBFC"/>
  <circle cx="60" cy="160" r="4" fill="#D1D5DB"/>
  <text x="70" y="164" font-family="Arial" font-size="12" fill="#4B5563">Бидний тухай</text>
  <line x1="170" y1="160" x2="180" y2="160" stroke="#6B7280" stroke-width="1.5"/>
  <line x1="175" y1="155" x2="175" y2="165" stroke="#6B7280" stroke-width="1.5"/>
  <rect x="190" y="152" width="16" height="16" rx="2" fill="#F3F4F6"/>
  <path d="M193 160H203M198 155V165" stroke="#6B7280" stroke-width="1.5" stroke-linecap="round"/>
  <rect x="210" y="152" width="16" height="16" rx="2" fill="#F3F4F6"/>
  <path d="M214 160H222" stroke="#6B7280" stroke-width="1.5" stroke-linecap="round"/>
  
  <!-- Drag Handle Illustration -->
  <rect x="190" y="60" width="50" height="10" rx="5" fill="#EEF2FF"/>
  <circle cx="195" cy="65" r="3" fill="#6366F1"/>
  <circle cx="205" cy="65" r="3" fill="#6366F1"/>
  <circle cx="215" cy="65" r="3" fill="#6366F1"/>
  <path d="M225 65L235 60L225 55" stroke="#6366F1" stroke-width="1.5" stroke-linecap="round" stroke-linejoin="round"/>
  
  <!-- Cursor showing drag operation -->
  <path d="M180 92L185 87L190 92L185 97L180 92Z" fill="#6366F1"/>
  
  <!-- Spotlight effect -->
  <circle cx="100" cy="100" r="70" fill="url(#paint0_radial)" fill-opacity="0.15"/>
  
  <defs>
    <radialGradient id="paint0_radial" cx="0" cy="0" r="1" gradientUnits="userSpaceOnUse" gradientTransform="translate(100 100) rotate(90) scale(70)">
      <stop stop-color="#6366F1"/>
      <stop offset="1" stop-color="#6366F1" stop-opacity="0"/>
    </radialGradient>
  </defs>
</svg>