<?xml version="1.0" encoding="UTF-8"?>
<svg width="300" height="200" viewBox="0 0 300 200" fill="none" xmlns="http://www.w3.org/2000/svg">
  <!-- Background -->
  <rect width="300" height="200" rx="10" fill="#F9FAFB"/>
  
  <!-- Editor Frame -->
  <rect x="20" y="20" width="260" height="160" rx="8" fill="white" stroke="#E5E7EB" stroke-width="2"/>
  
  <!-- Toolbar -->
  <rect x="20" y="20" width="260" height="40" rx="8 8 0 0" fill="#F3F4F6"/>
  
  <!-- Bold Button -->
  <rect x="30" y="30" width="24" height="24" rx="4" fill="#6366F1" opacity="0.2"/>
  <text x="38" y="46" font-family="Arial" font-size="14" font-weight="bold" fill="#4F46E5">B</text>
  
  <!-- Italic Button -->
  <rect x="60" y="30" width="24" height="24" rx="4" fill="#6366F1" opacity="0.1"/>
  <text x="68" y="46" font-family="Arial" font-size="14" font-style="italic" fill="#4F46E5">I</text>
  
  <!-- Underline Button -->
  <rect x="90" y="30" width="24" height="24" rx="4" fill="#6366F1" opacity="0.1"/>
  <text x="98" y="46" font-family="Arial" font-size="14" fill="#4F46E5" text-decoration="underline">U</text>
  
  <!-- List Button -->
  <rect x="120" y="30" width="24" height="24" rx="4" fill="#6366F1" opacity="0.1"/>
  <line x1="125" y1="35" x2="139" y2="35" stroke="#4F46E5" stroke-width="2"/>
  <line x1="125" y1="40" x2="139" y2="40" stroke="#4F46E5" stroke-width="2"/>
  <line x1="125" y1="45" x2="139" y2="45" stroke="#4F46E5" stroke-width="2"/>
  <line x1="125" y1="50" x2="139" y2="50" stroke="#4F46E5" stroke-width="2"/>
  
  <!-- Link Button -->
  <rect x="150" y="30" width="24" height="24" rx="4" fill="#6366F1" opacity="0.1"/>
  <path d="M158 37C156.343 37 155 38.343 155 40C155 41.657 156.343 43 158 43L162 43C163.657 43 165 41.657 165 40C165 38.343 163.657 37 162 37L158 37Z" stroke="#4F46E5" stroke-width="1.5"/>
  <path d="M162 47C163.657 47 165 45.657 165 44C165 42.343 163.657 41 162 41L158 41C156.343 41 155 42.343 155 44C155 45.657 156.343 47 158 47L162 47Z" stroke="#4F46E5" stroke-width="1.5"/>
  
  <!-- Image Button -->
  <rect x="180" y="30" width="24" height="24" rx="4" fill="#6366F1" opacity="0.1"/>
  <rect x="184" y="34" width="16" height="12" rx="1" stroke="#4F46E5" stroke-width="1.5"/>
  <circle cx="187" cy="38" r="1.5" fill="#4F46E5"/>
  <path d="M184 43L188 39L190 41L196 35" stroke="#4F46E5" stroke-width="1.5"/>
  
  <!-- Content Area -->
  <rect x="30" y="70" width="240" height="100" rx="4" fill="#F9FAFB"/>
  
  <!-- Text Content -->
  <line x1="40" y1="85" x2="220" y2="85" stroke="#6366F1" stroke-width="2"/>
  <line x1="40" y1="105" x2="200" y2="105" stroke="#D1D5DB" stroke-width="2"/>
  <line x1="40" y1="125" x2="180" y2="125" stroke="#D1D5DB" stroke-width="2"/>
  <line x1="40" y1="145" x2="160" y2="145" stroke="#D1D5DB" stroke-width="2"/>
  
  <!-- Cursor -->
  <line x1="222" y1="80" x2="222" y2="90" stroke="#6366F1" stroke-width="2"/>
  
  <!-- Spotlight effect -->
  <circle cx="230" y="40" r="60" fill="url(#paint0_radial)" fill-opacity="0.2"/>
  
  <defs>
    <radialGradient id="paint0_radial" cx="0" cy="0" r="1" gradientUnits="userSpaceOnUse" gradientTransform="translate(230 40) rotate(90) scale(60)">
      <stop stop-color="#6366F1"/>
      <stop offset="1" stop-color="#6366F1" stop-opacity="0"/>
    </radialGradient>
  </defs>
</svg>